/* XPM */
static char *e9e98ff3f3b64962a4139c9f67dacfb0[] = {
/* columns rows colors chars-per-pixel */
"40 40 239 2 ",
"   c #BF0A03",
".  c #CA0202",
"X  c #D50E03",
"o  c #DB0006",
"O  c #DF1903",
"+  c #CB1A0A",
"@  c #EB0302",
"#  c #E40B04",
"$  c #F50809",
"%  c #F31A04",
"&  c #EC0819",
"*  c #EB1B14",
"=  c #F51D14",
"-  c #F71717",
";  c #EE1312",
":  c #D82506",
">  c #D73105",
",  c #DC3E00",
"<  c #DD3A0A",
"1  c #EC2608",
"2  c #F82507",
"3  c #E33D01",
"4  c #E53D0C",
"5  c #EA3506",
"6  c #F63B04",
"7  c #F73819",
"8  c #EF2F14",
"9  c #EF202A",
"0  c #FF2E25",
"q  c #FF2428",
"w  c #FF3326",
"e  c #DD4501",
"r  c #D94907",
"t  c #DC5300",
"y  c #DF5C02",
"u  c #DE5C0C",
"i  c #D55D00",
"p  c #E34402",
"a  c #E94401",
"s  c #E34B02",
"d  c #EA4902",
"f  c #E4450C",
"g  c #EE460C",
"h  c #E64C0A",
"j  c #F34E00",
"k  c #E55402",
"l  c #EA5303",
"z  c #E35C02",
"x  c #E95B02",
"c  c #E95409",
"v  c #E35B0A",
"b  c #EC5C0A",
"n  c #E5560A",
"m  c #F65C07",
"M  c #F1530B",
"N  c #EB4015",
"B  c #F44C13",
"V  c #F84217",
"C  c #E75310",
"Z  c #EB5513",
"A  c #E65B11",
"S  c #FC5B17",
"D  c #DE6400",
"F  c #DD6B00",
"G  c #DA6507",
"H  c #DC7402",
"J  c #DB7B01",
"K  c #DB7906",
"L  c #D97811",
"P  c #E46402",
"I  c #EB6501",
"U  c #E26B01",
"Y  c #EB6B03",
"T  c #E56409",
"R  c #EA640B",
"E  c #E46C0A",
"W  c #EC6C0A",
"Q  c #F36607",
"!  c #F36B02",
"~  c #FF6D09",
"^  c #F6650C",
"/  c #E37300",
"(  c #EB7302",
")  c #E47B02",
"_  c #EB7B02",
"`  c #E37509",
"'  c #E67A09",
"]  c #F47501",
"[  c #FC7402",
"{  c #F47C01",
"}  c #FC7C03",
"|  c #F4750A",
" . c #FF750D",
".. c #FC7B0A",
"X. c #EC6715",
"o. c #F56414",
"O. c #E87715",
"+. c #FB7411",
"@. c #FF7C14",
"#. c #F3562D",
"$. c #DC830F",
"%. c #DF9011",
"&. c #D68C11",
"*. c #E58302",
"=. c #EC8403",
"-. c #E38902",
";. c #EB8B01",
":. c #ED820A",
">. c #E78B0E",
",. c #F48301",
"<. c #FC8402",
"1. c #F58C01",
"2. c #FC8C02",
"3. c #FD8309",
"4. c #F28B0A",
"5. c #FD8B0B",
"6. c #F0830A",
"7. c #ED9303",
"8. c #E89803",
"9. c #F49301",
"0. c #FD9201",
"q. c #F39902",
"w. c #FA9A02",
"e. c #FE9A0B",
"r. c #FA940C",
"t. c #E58B10",
"y. c #E58413",
"u. c #FC8612",
"i. c #FF8C14",
"p. c #E39318",
"a. c #F29C13",
"s. c #FC9916",
"d. c #EFA900",
"f. c #F4A102",
"g. c #F6AD00",
"h. c #FBAB00",
"j. c #F8A709",
"k. c #EEB607",
"l. c #F2B201",
"z. c #FCB203",
"x. c #FEB805",
"c. c #F9B70D",
"v. c #F3B80C",
"b. c #F2AF10",
"n. c #EFBF13",
"m. c #F2B712",
"M. c #F3BA15",
"N. c #F8B318",
"B. c #DB9221",
"V. c #E99728",
"C. c #F9A325",
"Z. c #F5BD20",
"A. c #E8A838",
"S. c #FDAE39",
"D. c #ECB133",
"F. c #E9A921",
"G. c #F6C418",
"H. c #EFC02C",
"J. c #F7C72B",
"K. c #F6C636",
"L. c #F1D93B",
"P. c #F4BC47",
"I. c #F8BD58",
"U. c #F2B152",
"Y. c #FDBF6A",
"T. c #FDC04D",
"R. c #FBD647",
"E. c #FCC658",
"W. c #FAD75D",
"Q. c #F4CB6B",
"!. c #FFD265",
"~. c #FAD66B",
"^. c #FDDA6D",
"/. c #F5D96B",
"(. c #FBD272",
"). c #FAD77C",
"_. c #F8CB70",
"`. c #F4E176",
"'. c #FAE478",
"]. c #FDD682",
"[. c #FBDB85",
"{. c #FBDA8B",
"}. c #F5DF94",
"|. c #FDE48D",
" X c #F5E689",
".X c #FCE593",
"XX c #FEEB94",
"oX c #FDE299",
"OX c #FFEC9B",
"+X c #F3E998",
"@X c #FEE4A3",
"#X c #FFEAA0",
"$X c #FFE6AC",
"%X c #FBEBAE",
"&X c #FFF4A6",
"*X c #FFE7B1",
"=X c #FFEEB5",
"-X c #FDEDBD",
";X c #FEEBC4",
":X c #FAEFC4",
">X c #FBF1C3",
",X c #FBF3CB",
"<X c #FFFBCB",
"1X c #F8EFD0",
"2X c #FCF1D1",
"3X c #FBF4DD",
"4X c #FFFADB",
"5X c #FBEFEC",
"6X c #EDF5EF",
"7X c #EFF9ED",
"8X c #ECF7E7",
"9X c #FDF5E3",
"0X c #F1F5ED",
"qX c #FCF5EB",
"wX c #FAFBEC",
"eX c #F8FAE8",
"rX c #EFF4F5",
"tX c #EEF9F3",
"yX c #EDFCFC",
"uX c #EBF6FB",
"iX c #F4F5F4",
"pX c #FAF4F4",
"aX c #F3FCF4",
"sX c #FCFDF4",
"dX c #F4F5FC",
"fX c #FCF6FD",
"gX c #F4FCFD",
"hX c #FFFFFB",
"jX c #FEFEF9",
"kX c #FBF9FE",
"lX c #FFFBFF",
"zX c #FFFAFF",
"xX c #FFF9FE",
"cX c #F9FFFF",
"vX c #FAFEFE",
"bX c #FFFCFF",
"nX c #FFFFFF",
"mX c #FDFEFE",
"MX c #FDFDFD",
/* pixels */
"gXjXnXnXnXxXxXcXxXgXcXjXsXjXxXpXiXaXdXgXgXdXaXpXpXsXjXxXnXsXsXjXcXjXnXnXvXjXjXgX",
"sXxXxXnXvXjXjXsXjXcXgXfXfXuXyXxXxX3X2X>X>X4X3XpXyXgXrXaXjXnXkXnXvXjXnXcXnXxXxXjX",
"nXxXxXjXgXcXnXxXgXsXqXiXnXwX+XW.J.m.c.h.h.b.m.J.R.%XeXsXdXdXjXsXxXnXcXgXsXxXxXjX",
"nXnXjXsXnXxXxXnXgXiXkX9X(.M.g.7.7.;.t.*.-.%.;.;.7.j.c.^.3XkX0X0XxXjXnXcXwXsXnXjX",
"MXvXvXkXxXjXwX7XgXpX[.m.8.p.V.U.V.=.;.;.;.-.) V.B.*.*.w.g.'.cXxXaXeXnXxXcXgXcXnX",
"xXjXnXxXjXsXdXgX;XR.f.1.D.~.oX#X|.a.0.2.,.*.>.[.OX_.&.J 6.w.H.,XgXgXjXnXnXcXnXxX",
"xXsXnXxXsXdXfX;Xc.7.7.E.$XXX'.+XP.2.0.0.r.0.,.A.Q.Q.p._ ) O.=.x.*XqXgXeXjXnXjXjX",
"cXsXnXxX8XgX-Xv.q.7.T..X.XXX.XY.9.2.9.0.0.7.2.=.J _ / *._ ) H ( k.*XgX7XxXxXsXcX",
"gXcXfXkXuX,Xv.q.9.2.{.XXoX].S.2.0.9.0.2.2.9.1.5.<._ *._ ) J K R R z.>XgX0XsXxXcX",
"nXnXnX0XsXK.a.7.w.0.F.P.S.q.4.0.;.r.2.2.0.2.2.,.2.*.) _ ) ) ) ) t ` J.pXdXsXjXcX",
"jXnX6XnX[.f.;.e.q.0.0.2.<.0.q.2.2.0.1.1.2.2.2.2.1.u.| / _ | Y J U s 1.).kXdXsXvX",
"nXjXtX9XN.q.q.0.0.q.e.q.2.e._ 5.2.2.2.2.2.5.3.,.<...{ _ ' / / O.( s Z l.,XdXnXsX",
"nXqXgX/.w.7.0.a.r.7.q.e.w.w.7 M j.1.2.0.<.3.2.9.0.B m ;.J H ) F / T 3 { /.cXdXnX",
"xXMXeXG.t.1.s.Q.P.2.0.<.S S 0 % S I ,.5.<.<.<.[ @.q = ^ T X.( / U O.p l Z.9XiXxX",
"kXgX#Xd.t.9.E.&X^.2.0.2.7 & = $ o A 1.<.<.2.+.5 = q - # > U / R U U h , 9.oXcXxX",
"aXaX!.8.,.C. X.XI.1.0.9.4.1 & @ g i.9.<.3.=.2.+.- # @ : O./ I J / I Z p Y R.gXdX",
"iXnXJ.;.:.P.#X|.C.9.2.2.<.O < % 5 @.2.<.<.} <.3.= X $ 2 ( H o.U P n b p l G.sXdX",
"dXqXM.;.:.E.OX{.s.2.2.<.<.^ u.@.m 3.1.<.<.<.<.] 5 +.~ 6 ^ J U W D k c p s b.3XdX",
"kX2Xl.=.;.(.OX[.7.2.9.5.2.2.0.9.3.<.,.<.<.<.<.[ 3.{ <.] P U ( D y s c p p f.;XgX",
"kX>Xl.:.-.).XX].5.<.1.1.2.2.<.=.2.,.<.<.} } } } } [ ] Y W U U R v p s s p w.=XyX",
"kX:Xl.:.-.).XX].i.2.2.1.2.<.<.<.<.<.<.} } [ [ { [ ]  .W U P W P n p f s p w.=XgX",
"kX1Xl.=.*.(.OX].4.7.2.2.2.<.} <.} } } { } [ [ _ } [ ( F ( x T U s p p s p f.>XgX",
"kXqXM.;.) I.#X[.s.2.3.<.<.1.o.] <.} [ { } [ [ { [ Q P D Q P D b e a p a s b.9XdX",
"iXfXJ.;./ A.@X|.C.<.3.5.2.1.w 6 9.<.} <.{ ]  .[ <.8 8 ( Y I F k s g p p k G.sXdX",
"aXnX!.7.:.$.].XXI.<.2.] B #.0 $ V g ..[ ~ } ] V B 9 * 5 < A D s a p s 3 | L.gXdX",
"pXkX@Xd.) ' A.#X`.y.4.,.6 $ - & # M { { ] ..^ 5 & * X   r P k f a s f p 1..XgXsX",
"jXdXeXn.=./ K U.&XA.] =.u.2 @ @ 7 ..]  .[ ! Q ( * . o 1 W i a p p r p l N.9XrXxX",
"nXiXgXW.w.) L ) V.O.! H R : > 2 1  ._ Y F E o.z + > % O R u 4 d a p p _ ~.nXdXnX",
"cXsXdX2Xl.:.' ( ( F ) _ P u ) ( n Y I I Y U P R C P I s s p a s d 3 C l.-XdXxXcX",
"jXcXpXgX`.q.U ) ` / Y ! ( O.R E / I Y P Y U P x D G T k 4 N d e , f ;.~.sXdXjXcX",
"jXkXsXdXwXK.:.H J ( H J E U U Y U T T D P P T A U z s a p p p p e ` J.5XcXsXsXxX",
"gXnXsXfXgX,Xc.Y T _ E P E U I T U U P P P z P D j p f f s p a 4 b z.;XcXiXnXnXxX",
"cXkXnXsX6XgX$Xv.R z P ( U P T P P P P P T x k s e d a p d 3 p R l.@XcXaXsXnXcXgX",
"sXjXnXnXsXgXqX$Xx./ r k W U F P U U U P P P z y n k e e f f W g.@XqXgXaXnXnXjXsX",
"xXnXcXnXjXjXgXcX;XK.1.Z , t X.v x x x x x x k s r f p p C =.J.-XgXgXsXjXnXnXjXxX",
"nXcXgXcXnXjXpXaXcXqX(.g.{ c e < f f f h h f p 3 p p l _ l.^.5XgXtXsXjXnXnXgXcXnX",
"jXjXsXvXcXnXnXjXwXdXkX<X/.b.1.] x s p p f p s x ] 1.N.^.-XpXgXiXsXxXnXnXvXjXjXjX",
"jXxXxXsXgXcXnXnXwXsXaXuXgX9XoXR.Z.b.f.w.w.f.b.Z.R.}.3XxXdXiXaXsXnXxXcXcXjXxXxXjX",
"nXxXxXjXcXnXjXcXcXnXnXxXdXtXaXaXwX3X,X-X-X:X3XwXkXgXaXdXxXnXjXnXcXjXnXcXjXxXxXnX",
"aXnXjXjXnXxXsXcXjXnXsXsXxXxXfXkXdXkXgXyXyXgXdXdXfXsXsXnXnXgXcXxXcXsXxXxXjXjXnXaX"
};
