/* XPM */
static char *_5b33b8421dc46d997d62c67f70c121d[] = {
/* columns rows colors chars-per-pixel */
"35 50 240 2 ",
"   c #030201",
".  c #0A0201",
"X  c #0B0905",
"o  c #05050A",
"O  c #0C0C0B",
"+  c #130D02",
"@  c #1A0904",
"#  c #191206",
"$  c #1A191A",
"%  c #141412",
"&  c #2C140E",
"*  c #35230C",
"=  c #22211D",
"-  c #372C13",
";  c #010137",
":  c #1A133B",
">  c #261739",
",  c #29142E",
"<  c #272726",
"1  c #343434",
"2  c #343227",
"3  c #523111",
"4  c #643C08",
"5  c #463838",
"6  c #513B28",
"7  c #684A1B",
"8  c #574430",
"9  c #6B4526",
"0  c #66522F",
"q  c #6B5936",
"w  c #704F36",
"e  c #060549",
"r  c #171248",
"t  c #030154",
"y  c #080855",
"u  c #130F55",
"i  c #131254",
"p  c #261A46",
"a  c #19225B",
"s  c #272648",
"d  c #28235B",
"f  c #36365A",
"g  c #0A0D65",
"h  c #0D156C",
"j  c #17156B",
"k  c #090E75",
"l  c #0B1377",
"z  c #161777",
"x  c #180C67",
"c  c #241A63",
"v  c #2A2666",
"b  c #36376A",
"n  c #383675",
"m  c #292F73",
"M  c #433C68",
"N  c #4F3F4C",
"B  c #454347",
"V  c #514B48",
"C  c #585856",
"Z  c #795346",
"A  c #65554C",
"S  c #7E6258",
"D  c #7E6D41",
"F  c #575677",
"G  c #51456E",
"H  c #676767",
"J  c #75646B",
"K  c #787977",
"L  c #706A69",
"P  c #6E5F72",
"I  c #866336",
"U  c #916B3A",
"Y  c #9A6833",
"T  c #845D4E",
"R  c #846644",
"E  c #977756",
"W  c #8E714D",
"Q  c #A4774B",
"!  c #B47E4B",
"~  c #A67756",
"^  c #8B796E",
"/  c #BA8A5A",
"(  c #B1895A",
")  c #918877",
"_  c #BD986C",
"`  c #B09069",
"'  c #BDA578",
"]  c #C69256",
"[  c #CF9C66",
"{  c #C59E7A",
"}  c #C08F71",
"|  c #C8A268",
" . c #D8A56F",
".. c #D5B379",
"X. c #E7B676",
"o. c #080E80",
"O. c #0C1485",
"+. c #161A84",
"@. c #161D91",
"#. c #231B88",
"$. c #1C2A8A",
"%. c #182D94",
"&. c #2D328F",
"*. c #333BA1",
"=. c #4238A8",
"-. c #354993",
";. c #3443A8",
":. c #374DB7",
">. c #3A55BB",
",. c #3F5AA9",
"<. c #4E5B95",
"1. c #46478D",
"2. c #625F8A",
"3. c #5E638E",
"4. c #576298",
"5. c #6F6E8A",
"6. c #727183",
"7. c #69699B",
"8. c #717293",
"9. c #4957A5",
"0. c #4756B7",
"q. c #494FA5",
"w. c #5967A4",
"e. c #5763B7",
"r. c #5C71AA",
"t. c #636CAA",
"y. c #7476AE",
"u. c #2C52C1",
"i. c #485CCD",
"p. c #585FC1",
"a. c #485CD5",
"s. c #5564C3",
"d. c #546FCE",
"f. c #6878D8",
"g. c #6875C3",
"h. c #5D79EB",
"j. c #5979F4",
"k. c #4F73E1",
"l. c #677BE4",
"z. c #687DF8",
"x. c #867FA1",
"c. c #8A7A87",
"v. c #7A85B3",
"b. c #7186CF",
"n. c #5F82F6",
"m. c #6683EC",
"M. c #6885F8",
"N. c #7382E1",
"B. c #8D8C8D",
"V. c #868883",
"C. c #8D8B91",
"Z. c #979798",
"A. c #978D8B",
"S. c #9CA39B",
"D. c #ADA69D",
"F. c #8D94BB",
"G. c #969AB7",
"H. c #8A8CAC",
"J. c #AA9DA9",
"K. c #9EA1A0",
"L. c #9DA0B3",
"P. c #A3A3A3",
"I. c #ACABA9",
"U. c #A6A9A8",
"Y. c #ACB1AB",
"T. c #B1B3AD",
"R. c #BBB4AA",
"E. c #B9B8B9",
"W. c #B2A9AF",
"Q. c #AD8F84",
"!. c #D3B892",
"~. c #CAB08D",
"^. c #C8BCB9",
"/. c #DBC186",
"(. c #EAC68A",
"). c #E7C99A",
"_. c #EBD29B",
"`. c #F0CF9A",
"'. c #C8C5BB",
"]. c #DFCFAD",
"[. c #F1D6AF",
"{. c #989FC9",
"}. c #A39EC6",
"|. c #ABB5D4",
" X c #B7B8D8",
".X c #B1B2C6",
"XX c #B0B7E9",
"oX c #99AAD5",
"OX c #C2BDC3",
"+X c #BBC3C6",
"@X c #B5C1E9",
"#X c #C8C8C7",
"$X c #D8D6CA",
"%X c #C9CCD5",
"&X c #D2C9D9",
"*X c #CBD1D2",
"=X c #D3D2D3",
"-X c #DBDCDC",
";X c #D8D7D8",
":X c #E8DED8",
">X c #DCE4DC",
",X c #E7E8DC",
"<X c #D2CEE4",
"1X c #CED2E7",
"2X c #DADAE6",
"3X c #D8D7F4",
"4X c #C9CEEE",
"5X c #E3DCE9",
"6X c #DBE3E4",
"7X c #DCE8FE",
"8X c #E2E3E3",
"9X c #EBECE6",
"0X c #E5E5EB",
"qX c #EDEDEC",
"wX c #E9EAEA",
"eX c #F3EDED",
"rX c #F1EEE7",
"tX c #EDF1EC",
"yX c #E8F1EA",
"uX c #F2F2EE",
"iX c #F3F5E9",
"pX c #EEEEF1",
"aX c #E5ECFE",
"sX c #EBEEFB",
"dX c #E9E6F7",
"fX c #F2EEF3",
"gX c #F5EDFB",
"hX c #EEF2F3",
"jX c #EDF1FA",
"kX c #EDF8F7",
"lX c #F5F5F5",
"zX c #F2F2F2",
"xX c #FAF4F3",
"cX c #FDFBF5",
"vX c #F4F5FC",
"bX c #F9F4FA",
"nX c #F5FBFE",
"mX c #FEFEFE",
"MX c #FCFCFD",
"NX c #F6FAF4",
/* pixels */
"uXzXtXhXlXlXqXlXhXpXzXzXzXzXqXmX=XzXzXzXzXlXzXzXzXzXzXzXzXzXzXzXzXzXzX",
"zXuXzXzXhXqXzXlXhXvXzXhXqXlXmXK V.mXqXzXzXqXqXzXzXzXzXzXzXzXzXzXzXzXzX",
"zXzXzXzXpXzXlXpXzXzXpXzXMX9XV X H #XmXqXlXzXzXzXzXzXzXzXzXzXzXzXzXzXzX",
"zXzXqXzXzXlXpXhXlX=XzXmX-X2   . X #XMXzXzXzXqXzXzXzXzXzXzXzXzXzXzXzXzX",
"fXlXpXzXlXzXqXmXU.V.MXE.X   O     2XP.#XlXzXMXqXzXzXzXzXzXzXzXzXzXzXzX",
"fXlXfXlXzXpXlXzX$ T.#X    . O X % Z.O U.mXqXzXlXzXzXzXzXzXzXzXzXzXzXzX",
"zXzXzXlXzXqXMXB.  C.X     . = X   O   B.mXqXzXzXzXzXzXzXzXzXzXzXzXzXzX",
"lXzXlXqXpXqXpX$   X X     % 1   X o   H mXqXlXzXzXzXzXzXzXzXzXzXzXzXzX",
"zXzXtXzXwXlXZ.    o     X < 1   X <   B mXzXzXzXzXzXzXzXzXzXzXzXzXzXzX",
"hXtXlXzXqXwX< o o       $ 1 <   1 %   1 MXqXqXlXzXzXzXzXzXzXzXzXzXzXzX",
"uX9XNX-XlXS.          X $ 1 $ % < X   B mXMXzXzXzXzXzXzXzXzXzXzXzXzXzX",
"hXtXmXS.*XL   X   .   . = $ . = O     V.8XE.zXzXzXzXzXzXzXzXzXzXzXzXzX",
"zXzXmXB.C V   . . . . X 2 + + #   X   K < T.mXzXzXzXzXzXzXzXzXzXzXzXzX",
"zXzXMXP.X $ . . . . . + # . . .     o   1 MXzXqXzXzXzXzXzXzXzXzXzXzXzX",
"fXfXmXI.  . . 5 5 . . # . 6 A + X     o *X=X*XMXzXzXzXzXzXzXzXzXzXzXzX",
"zXpXbX#X  . @ ^ ) * . . q ].[.^     X 1 V C zXtXuXuXzXzXzXzXzXzXzXzXzX",
"lXqXbXE.< . 6 E ` I . - _./.).~.X   . . 5 cXNXkXqXuXuXqXxXfXvXhXzXzXzX",
"zXzXmX#X% . w Q ! ( @ ` `...(.!.-   . # ^ D.%X7XMXfXlXlXpXzXzXhXzXzXzX",
"eXqXqXmXB.. Z ~ / [ I ..!.`.[.' * 6 . * 0 V <.g.|.mXMXfXlXzXxXeXzXzXzX",
"xXlXwXzX;X5 6 9 ~  .[ | ).' 7 ` E E & 0 W 5 e.l.e.t.F.aXnX0XeXiXuXzXzX",
"qXlXlXeXA Z w W I ~ / [ D q ` !.' I 4 I R N 1.l.M.>.-.r.4XMXhXtXzXzXzX",
"hXyXlX#X* T w _ { W Q U W ' [.!.Q.6 4 I W > j @.a.M.m.f.-.F.nXkXzXzXhX",
"kXyXMXR.& T 9 I /  .! [ | | ).~.5., 9 I T > j o.o.i.u.k.m.-.v.7XvXzXzX",
"tXhXlX&X& A q 7 / / Q X.X.(.].J.7.r 0 R J p x z +.:.>.h.>.N.<.|.vXlXzX",
"zXhXbX5X> 5 0 3 9 } ! ] (.).A.x.1.b #X$XJ.: u y m h h h h &.7.aX0XzXzX",
"zXpXgXMX5.o ) ~.S 3 ` { ~.^ G b i v.*X#XsXM p G 1.n n ; r v 3XvXqXlXzX",
"iXuXpXvXdXP V.,X:X5 , G > d m 9.<.|.E.;XmX#X%XnXvXMX5X6.8.%XMXMX8XzXzX",
"iXuXbXvXgXmXZ.I.qX&XF b d i 1.y.F.%XzXcXqX+X+XkXfXeXeX8XP..XmXMX0XzXzX",
"uXzXqXqXuX9XK K =X5X&X&X2X2X X<XdXMXbX9XY.6X8. XnXlXvXkX#XZ.OX0XqXlXzX",
"hXlXlXxXcXT.P.I.Z.K.K.J.E.^.D.R.^.D.A.Z.%X|.w.t.nX0XjXvX,XD.*XmX8XzXzX",
"lXhXeX5XE.Z.Z.;XmXE.F L.J 5 8 8 8 8 B G.F.9.N.,.4XMXdXlX,XS.MX0X;XqXzX",
"hXlXMXI.P.=XU.wXmXjX1X Xs P J ^ ^ c.5.b t 0.m.s.v.nXgXlX9XS.U.6X8XlXlX",
"qXNX#XI.T.;X#X-XmX0XnXy.e c v v v u y g h ;.0.f.e.XXnX9XxXqX;XpXzXzXzX",
"eXxX'.T.#X#XqX#X;XvX}.e j g h h k z #.#.z &.$.*.l.9.aXuXxXzXlXvXzXzXzX",
"gXbXlXE.Y.>XzX2XpX3Xu j z z g h z l &.=.#.+.O.l i.s.{.MXqX9XlXpXzXzXzX",
"gXgXpXmX6X>X9XpXmX2.t +.k l g t y y t t x z k O.O.p.w.aXpXuXtXzXzXzXzX",
"bXbXvXsXkXkXhXvX1Xr z k +.%.;.q.a 8.G.}.M y z l k &.w.4XnXvXtXzXzXzXzX",
"eXfXvXsXkXhXqXmXy.y &.%.l.m.z.f.3.2XmXmX3Xd e h z l q.XXnXsXlXuXzXzXzX",
"xXfXjXkXhXtXuXvXn q.$.i.h.j.z.s.G.#XuXqXnXdX7.i g p.f.9.@XnXvXqXzXzXzX",
"eXlXhXhXuX9XcX<Xn 0.%.M.j.j.h.s.6.) cXlXpXvXmXXXu &.*.e.4.|.vXhXzXzXzX",
"uXuXhXzXpXfXcX<Xd $.>.n.j.M.d.t.B R.xXzXvXjXsXnXH.; h *.g.XXjXhXzXqXlX",
"uXtXzXzXfXlXxXdXv t :.M.j.m.-.v.W.:XxXhXjXjXpXvX;X: e z t.7X0XzXtXzXzX",
"hXhXlXuXzXxXeXmX3.e %.h.l.&.8.vXxXxXlXsXjXjXzXuXuXC.f b F.vXqXtXuXlXuX",
"hXhXzXfXeXzXqXmXF e s.s.9.oXnXuXeXfXzXhXhXlXzXqXiXuX.XL.1XjX8X9XuXuXqX",
"zXuXpXzXpXlXfXvX1Xs m b.7XnXhXqXrXzXzXuXtXuXfXzXuXuXzXW.P.%X=X-XlXtXuX",
"uXzXpXlXzXzXvXjXvXjX1XvXnXhXhXlXzXzXuXuXiXuXfXbXqXzXlXzX*XC.rXcX8XlXuX",
"gXlXfXuXuXtXzXhXtXqXnXfXlXzXeXhXlXhXpXzXuXuXgXbXbXtXzXzXnX^.'.R.R.cXqX",
"gXlXzXtXiXtXtXzXtXuXrXuXeXlXzXzXhXhXlXzXeXuXbXfXpXzXzXpXbXxXL 2 A.cXqX",
"zXzXzXuXuXuXzXzXzXzXzXzXzXzXzXzXzXzXzXzXzXzXzXzXlXzXzXlXqXxX,X) I.cXuX",
"zXzXzXzXzXzXzXzXzXzXzXzXzXzXzXzXzXzXzXzXzXzXzXzXzXlXpXlXeXqXMXxXeXxXqX"
};
