/* XPM */
static char *fdb7f44c68164f3b8930798160036a44[] = {
/* columns rows colors chars-per-pixel */
"50 38 48 1 ",
"  c #C4C9E7",
". c #8E7064",
"X c #CABDB7",
"o c #C6CBE8",
"O c #F8F9F9",
"+ c #866659",
"@ c #8C6E62",
"# c #F7F8F8",
"$ c #795547",
"% c #775345",
"& c #F6F6F6",
"* c #DADDEE",
"= c #7C5A4C",
"- c #B29E96",
"; c #D1D4EB",
": c #C2C6E3",
"> c #93776C",
", c #8F7776",
"< c #9D8C94",
"1 c #FDBF06",
"2 c #92766B",
"3 c #815F53",
"4 c #89695D",
"5 c #94786D",
"6 c #F4F2EF",
"7 c #9EA6DA",
"8 c #DDD5D3",
"9 c #B4BBE1",
"0 c #D7DAED",
"q c #9D857E",
"w c #FADA7A",
"e c #ECE8E7",
"r c #D0C6C3",
"t c #E9EBF3",
"y c #F8EFD3",
"u c #F9EABC",
"i c #B7A59D",
"p c #C9B68C",
"a c #F9E39F",
"s c #A99591",
"d c #FBD050",
"f c #FCC82E",
"g c #FDC213",
"h c #C0B0A9",
"j c #BDB7C5",
"k c #C7C6D1",
"l c #ADA7B8",
"z c #D9D9E5",
/* pixels */
"&&&&&&&&&&&&&&&#O##&&&&&&&&&&&&#O#&&&&&&&&&&&&&&&&",
"&&&&&&&&&&&&&&&6rir#&&&&&&&&&#8ire#&&&&&&&&&&&&&&&",
"&&&#&##&&&&&&&rq=%-#&&&&&&&&&OX%=>X6#&&&&&##&#&&&&",
"&&&uwwy&&&&#6h3%$%-#&&&&&&&&&OX$$%=-e#&&&#ywwa6&&&",
"&#uf11fy&&&6i=%+4%-#&&&&&&&&&OX$+@$$se#&&6d11ga&&&",
"&#w1111a#&&h=%%@.%-#&&&&&&&&&OX$42$$%s6##ug111d6&&",
"&#w1111a##X3$3%@.%-#&&&&&&&&&OX$+2$==$i&#ug111d6&&",
"&#yf11dyO84%4@%@.%-#&&&&&&&&&OX$+2$+.$3rO6wg1fu#&&",
"&* rppkozq%$@.%@.%-#&&&&&&&&&OX$+2$+>$%.8okppX ;&&",
"#o777777<=$$@.%@.%-#&&&&&&&&&OX$+2$+>$$$q7777779&&",
"&t 9999j+$3%@.%@.%-#&&&&&&&&&OX$+2$+>$===l9999:t&&",
"&&*   os%+4%@.%@.%-#&&&&&&&&&OX$+2$+>$+@%q o  ;&&&",
"&&*   o<%.@%@.%@.%-#&&&&&&&&&OX$+2$+>$+5$,:   ;&&&",
"&&*   o<%.@%@.%@.%-#&&&&&&&&&OX$+2$+>$+5$,:   ;&&&",
"&&*   o<%.@%@.%@.%-#&&&&&&&&&OX$+2$+>$+5$,:   ;&&&",
"&&*   o<%.@%@.%@.%-#&&&&&&&&&OX$42$+>$+5$,:   ;&&&",
"&&*   o<%.@%@.%@@%-#&&&&&&&&&OX$+2$+>$+5$,:   ;&&&",
"&&*   o<%.@%..%==%-#&&&&&&&&&OX$$=$+>$+5$,:   ;&&&",
"&&*   o<%.@%+3$$$%-#&&&&&&&&&OX$$$$=+$+5$,:   ;&&&",
"&&*   o<%4+$$%$+4%-#&&&&&&&&&OX$34$$%$3@$,:   ;&&&",
"&&*   o<%$$$33%@.%-#&&&&&&&&&OX$4>$33$$$%,:   ;&&&",
"&&*   o<%==%@.%@.%-#&&&&&&&&&OX$+2$+2$==%,:   ;&&&",
"&&*   o<%@@%@.%@.%-#&&&&&&&&&OX$+2$+>$+2%,:   ;&&&",
"&&*   o<%.@%@.%@.%-#&&&&&&&&&OX$+2$+>$+5$,:   ;&&&",
"&&*   o<%.@%@.%@.%-#&&&&&&&&&OX$+2$+>$+5$,:   ;&&&",
"&&*   o<%.@%@.%@.%-#&&&&&&&&&OX$+2$+>$+5$,:   ;&&&",
"&&*   o<%.@%@.%@.%-#&&&&&&&&&OX$+2$+>$+5$,:   ;&&&",
"&&*   o<%.@%@.%@.%-#&&&&&&&&&OX$4>$+>$+5$,:   ;&&&",
"&&*   o<%.@%@.%+3%-#&&&&&&&&&OX%34$+>$+5$,:   ;&&&",
"&&*   o<%.@%44$%%+X#&&&&&&&&&&8.$%%3.$+5$,:   ;&&&",
"&&*   o<%@@%=$$@i8&&&&&&&&&&&&&eh>=%=$+>$,:   ;&&&",
"&&*   o<%==%=>he##&&&&&&&&&&&&&&#eXq=%=3%,:   ;&&&",
"&&*   o<%%=qXe##&&&&&&&&&&&&&&&&&##6rq3%%,:   ;&&&",
"&&*   o<3qr6##&&&&&&&&&&&&&&&&&&&&&&#68s+,:   ;&&&",
"&&*    j86#&&&&&&&&&&&&&&&&&&&&&&&&&&&#&8j:   ;&&&",
"&&0    *O&&&&&&&&&&&&&&&&&&&&&&&&&&&&&&&Ot    ;&&&",
"&&t0000t&&&&&&&&&&&&&&&&&&&&&&&&&&&&&&&&&t0000*&&&",
"&&&&&&&&&&&&&&&&&&&&&&&&&&&&&&&&&&&&&&&&&&&&&&&&&&"
};
