/* XPM */
static char *f1da9b9f82cf42b4b3f4b1480fc0e87b[] = {
/* columns rows colors chars-per-pixel */
"50 50 48 1 ",
"  c white",
". c #978375",
"X c #F6F5F5",
"o c gray70",
"O c gray65",
"+ c #929292",
"@ c #FBFBFB",
"# c #AEAEAE",
"$ c #B7B7B7",
"% c #B0AFAF",
"& c #BBBBBB",
"* c #898988",
"= c #8E7A6C",
"- c #877466",
"; c #D9D7D5",
": c #727272",
"> c #937F71",
", c #909090",
"< c #9A8577",
"1 c gray61",
"2 c #9C8B7F",
"3 c #847163",
"4 c #848382",
"5 c #7D7D7C",
"6 c gray67",
"7 c gray63",
"8 c #6C6C6C",
"9 c #959595",
"0 c gray47",
"q c #61605E",
"w c #585858",
"e c #C7BDB6",
"r c #C0B6AF",
"t c #CDC2BB",
"y c gray79",
"u c #FEFEFE",
"i c #EEECEC",
"p c #98918C",
"a c #E3E2E0",
"s c #826F61",
"d c #B1A7A0",
"f c #524E4B",
"g c #3E3A38",
"h c #BDB0A8",
"j c #BCAEA5",
"k c #826E60",
"l c #A3958B",
"z c #97F5B3",
/* pixels */
"                                                  ",
"                                                  ",
"                                                  ",
"                                                  ",
"                                                  ",
"                                                  ",
"                                                  ",
"                                                  ",
"                                                  ",
"                                                  ",
"                                                  ",
"                                                  ",
"                                                  ",
"                       @@@@                       ",
"   @XXXXXXXXu      Xy7*7,,7*7yX      uXXXXXXXX@   ",
"   ;2222222li    X&756$O,,O$65O&X    il2222222;   ",
"   ;=-3333-.i   ;9yX6iXO99OXi6Xy9;   i.-3333-=;   ",
"  uXah...<ta@ u$4,a $54088045$ a,4$u @at<...haX   ",
"     t<<<<;  X#0;;*94*,1441+*49*;;0%X  ;<<<<t     ",
"     t.---; ;7ya+809#o%%++%%o#90:+ay7; ;---.t     ",
"     t.-3-d*:& ;01%O%o##++##o%O%10; &:*d-3-.t     ",
"    ue=>>>qOi1&5O$%O%o##++##o%O%$O5&1iOq>>>=e     ",
"     r=.-3g+&q*O$$#O%o##++##o%O#$oO*q&+g--<=r     ",
"     r=.33fqw1%#o$#O%o##++##o%O#$o#%1wqfs3.=r     ",
"     e..3-*5o$%#o$#O%o##++##o%O#$o#%$o5*-3..e     ",
"     t<<>.p*&$%#o$#O%o##++##o%O#$o#%$&*p.><<t     ",
"     e==>2p*&$%#o$#O%o##++##o%O#$o#%$&*p2>==e     ",
"     rs3=2p*&$%#o$#O%o##++##o%O#$o#%$&*p2=3sr     ",
"     e>>.<p*&$o%$$%O%o%%99%%o%O%$$%o$&*p<.>>e     ",
"     e=><=4w0::::::8::8:ww:8::8::::::0w4=.>=e     ",
"     rk-.=55y81&q$78y*5ywwy5*y87$q&18y55=.-kr     ",
"     rs-.=q# +;X*i;, $6 44 6$ ,;i*X;+ #q=.-sr     ",
"     rs-..gf5w8:w:8w0qq5gg5qq0w8:w:8w5fg..-sr     ",
"     e>>>-f0OO11O7191711441171917O11OO0f->>>e     ",
"     t<<=-44o%6O#%O7O6OO**OO6O7O%#O6%o44-=<<t     ",
"     ;jhdd%*9+,,++,,,+,,**,,+,,,++,,+9*%ddhj;     ",
"     uuuuuu@@@@@@@@@@@@@@@@@@@@@@@@@@@@uuuuuu     ",
"                                                  ",
"                                                  ",
"                                                  ",
"                                                  ",
"                                                  ",
"                                                  ",
"                                                  ",
"                                                  ",
"                                                  ",
"                                                  ",
"                                                  ",
"                                                  ",
"                                                  "
};
