/* XPM */
static char *_72c2f7e10a34ef6bdc1163eac9fecd3[] = {
/* columns rows colors chars-per-pixel */
"35 50 239 2 ",
"   c gray95",
".  c #ECECEB",
"X  c #F3F5F6",
"o  c #EF5716",
"O  c #F4F6F6",
"+  c #F5F5F4",
"@  c #F4F5F5",
"#  c #F3F3F2",
"$  c #F3F4F3",
"%  c #F7F7F5",
"&  c #F2F2F1",
"*  c #F1F1F1",
"=  c #000001",
"-  c #F45817",
";  c #922904",
":  c #A83408",
">  c #AC370B",
",  c #E25013",
"<  c #DA4B11",
"1  c #9D2E07",
"2  c #E9E9E8",
"3  c #BE3F0D",
"4  c #F85A18",
"5  c #FA5B19",
"6  c #DEDCDC",
"7  c #8B2705",
"8  c #C54412",
"9  c #070607",
"0  c #110E0E",
"q  c #1A1718",
"w  c gray94",
"e  c #A43207",
"r  c #E2D5CC",
"t  c #B93C0B",
"y  c #ECE3DE",
"u  c #344398",
"i  c #D54B13",
"p  c #BBB8B9",
"a  c #949393",
"s  c #D3D3D4",
"d  c #141314",
"f  c #E7E2DE",
"g  c #D8D8DA",
"h  c #D14710",
"j  c #A13107",
"k  c #E85315",
"l  c #62566A",
"z  c #DBC4BA",
"x  c #CCB6AF",
"c  c #E4C5B5",
"v  c #DF5015",
"b  c #E4A385",
"n  c gray90",
"m  c #666567",
"M  c gray80",
"N  c #F1EDEA",
"B  c #C7C8CC",
"V  c #F2F3F3",
"C  c #494748",
"Z  c #B23709",
"A  c #E2B8A4",
"S  c #B63A0A",
"D  c #AE8479",
"F  c #962D08",
"G  c #DFA98E",
"H  c #935644",
"J  c #E5C0AB",
"K  c #CC4712",
"L  c #E65214",
"P  c #E9D3C7",
"I  c #081159",
"U  c #8C3929",
"Y  c #222F7B",
"T  c #091E7D",
"R  c #4B4C89",
"E  c #F1C8AF",
"W  c #D69174",
"Q  c gray48",
"!  c #343334",
"~  c #E69D7D",
"^  c #B0ACB2",
"/  c #882A0B",
"(  c #47436A",
")  c #E5DEDB",
"_  c #E6926D",
"`  c #EBDBD2",
"'  c #142580",
"]  c #DBCBC4",
"[  c #2F3575",
"{  c #3B3A66",
"}  c #C39C8D",
"|  c #BC8775",
" . c #F3F4F4",
".. c #4F5999",
"X. c #E6A98D",
"o. c #E6D9D4",
"O. c #BFC3D6",
"+. c #5D4C71",
"@. c #9292AE",
"#. c #9C7569",
"$. c #DE6736",
"%. c #D9B5A4",
"&. c #D8B39D",
"*. c #C1937D",
"=. c #EB6B34",
"-. c #BA3E0E",
";. c #19204F",
":. c #762819",
">. c #E7561B",
",. c #182465",
"<. c #5C2629",
"1. c #07176B",
"2. c #7B3027",
"3. c #964231",
"4. c #DBAD96",
"5. c #B4B3B3",
"6. c #535253",
"7. c #644350",
"8. c #9F9AA0",
"9. c #403F41",
"0. c #E1E0E1",
"q. c #A04628",
"w. c #DFDAD4",
"e. c #EF6226",
"r. c #8F879E",
"t. c #3C373B",
"y. c #A6A3A8",
"u. c #393557",
"i. c #CAA495",
"p. c #F3F2F0",
"a. c #842304",
"s. c #B37460",
"d. c #656597",
"f. c #80260A",
"g. c #563642",
"h. c #9A8083",
"j. c #7A533F",
"k. c #AF9494",
"l. c #E67748",
"z. c #7F483C",
"x. c #E0B49A",
"c. c #100C32",
"v. c #591D1F",
"b. c #795E55",
"n. c #866C62",
"m. c #33245A",
"M. c #2F0F2C",
"N. c #878486",
"B. c #C9CCD7",
"V. c #D27F5C",
"C. c #F9D3BA",
"Z. c #7279B0",
"A. c #BDBEC4",
"S. c #472D24",
"D. c #D6A992",
"F. c #6F5262",
"G. c #651F0B",
"H. c #27266A",
"J. c #AFB3CC",
"K. c #B45B3F",
"L. c #DBA385",
"P. c #AA5333",
"I. c #4B2A54",
"U. c #4D1B19",
"Y. c #A8AAC1",
"T. c #B33F15",
"R. c #635E83",
"E. c #CA4C1F",
"W. c #C17758",
"Q. c #03063A",
"!. c #AC482A",
"~. c #293785",
"^. c #F1D4C0",
"/. c #682622",
"(. c #2F1B49",
"). c #D1663C",
"_. c #626162",
"`. c #C4B1AC",
"'. c #757475",
"]. c #8D4D3C",
"[. c #DFCAC1",
"{. c #C1C1C1",
"}. c #AA845B",
"|. c #9D6151",
" X c #E5D3B9",
".X c #DDD3D1",
"XX c #DF9C7C",
"oX c #2A2A2D",
"OX c #2B2A2B",
"+X c #A77D73",
"@X c #95665B",
"#X c #989EBE",
"$X c #5B5982",
"%X c #1B2E88",
"&X c #705F71",
"*X c #46445C",
"=X c #706D88",
"-X c #553933",
";X c #492342",
":X c #364082",
">X c #D1C4C2",
",X c #CFADA3",
"<X c #A56958",
"1X c #C7ACA1",
"2X c #A6898C",
"3X c #663F42",
"4X c #876F7D",
"5X c #61516B",
"6X c #331D15",
"7X c #292A41",
"8X c #162272",
"9X c #8186AD",
"0X c #4A4B7A",
"qX c #C3B4AF",
"wX c #2F2B2A",
"eX c #4A413D",
"rX c #6F2D32",
"tX c #C79585",
"yX c #824C4F",
"uX c #918784",
"iX c #892D0F",
"pX c #C1AFAC",
"aX c #C39182",
"sX c #8F7D71",
"dX c #B5A196",
"fX c #D39A80",
"gX c #8D81A2",
"hX c #040942",
"jX c #352C6B",
"kX c #DE7B51",
"lX c #BB451F",
"zX c #E2CEBF",
"xX c #C78E75",
"cX c #833728",
"vX c #C54C26",
"bX c #C1EBF2",
"nX c #F3F2EB",
"mX c #F2ECF6",
"MX c #ECF516",
/* pixels */
"# # # # # # # # # # # @ % + . n #   # # # # # # # # # # # # # # # #   ",
"# # # # # # # # # # w p p n n 8.2 * # # # # # # # # # # # # # # # # # ",
"# # # # # # # # # # # p 9.t.a '.5.* # # # # # # # # # # # # # # # # # ",
"# # # # # # # # # +  .p 9.9 0 t.m w @ # # # # # # # # # # # # # # # # ",
"  #   #     #   2 M ^ a 6.q = 9 q Q s  .$ $ # #     #   #     #   #   ",
"# # # # # # # # {.6.0 9 d oX0 = = = ! B 6 g 0.* # # # # # # # # # # # ",
"# # # # # # # # & g Q q = 9 9 0 = = = ! C _.5.* # # # # # # # # # # # ",
"# # # # # # # # * 2 M m d q d q q 9 = = d m a B * # # # # # # # # # # ",
"# # # # # # # # 6 a C d d wXeXj.#.S.6X0 = OXQ M & # # # # # # # # # # ",
"  #   #     # # w 2 s a C n.sXD.*.b.H S.C s @ @     #   #     # # # # ",
"# # # # # # # # # # % g N.dXz &.*.} D uXM # # # # # # # # # # # # # # ",
"# # # # # # # # # #  .V y z z E L.W | x ) @  .# # # # # # # # # # # # ",
"# # # # # # # # # # y A kXb J 4.W W.W.P.P.tXo.+ # # # # # # # # # # # ",
"# # # #     # # @ z =.>.K D c G fX%.aXyX> e H B     # # #     # # #   ",
"# # # #     # + O.+., o lXH.R R R R Y m.8 j v.:Xg $ # # #   # # # # # ",
"# # # # # # # + J.jXT.k >.I.T T T 1.I rXL ; M.R.2 # # # # # # # # # # ",
"# # # # # # # $ 2 R.:.i 5 E.(.1.I hXU.v < G.g.x & # # # # # # # # # # ",
"# # # # # # # # N x F.8 - 4 vX(.hX<.8 3 e H L.A w # # # # # # # # # # ",
"  #   #     # # 2 zXJ $.< S i 8 F t : 1 iX4.C.&.. # #   #     #   #   ",
"# # # # # # # # 2 P E V.K.U /.U cX<./.U.#.x.E G r  .# # # # # # # # # ",
"# # # # # # # # f ^.b xX@.u u u ~.Y ,.;.A.c C.c k.0.w # # # # # # # # ",
"# # # # # # #   r ^.X.4.Y.u u u u Y ,.;.B ` &.Z...1X] . # # # # # # # ",
"# # # # # # w g Z.gXW %.W !.3.3.2.2.:.G.pXp.qX{ 4Xx.G ) $     # # # # ",
"  # # # # * r i.d.~.h.P =.< L v -.o < Z s.* V A.} XX%.. #     # # # # ",
"# # # # # . c A *.l B.E o v - v -.5 - < !.o.+ $ r [.. # # # # # # # # ",
"# # # # # w r J G x X b - - 5 K > 4 5 o > ,XO #  . .# # # # # # # # # ",
"# # # # # # * f o.w y l.4 5 - : j 4 5 - Z |  .# # # # # # # # # # # # ",
"# # # #     # #  .  ~ o 4 5 h 7 a.< 4 4 S K.. #     #   #     #   #   ",
"# # # # # # # #  .` =.- 5 k : f.f.e h o t q..X+   # # # # # # # # # # ",
"# # # # # # # # X J o - - 3 ; U <X1 3 -.Z ; D  .# # # # # # # # # # # ",
"# # # # # # # # X b , 4 i > ; H z T.t , h ; 3.f $ # # # # # # # # # # ",
"# # # # # # # # # V.< o 8 > 7 k.y $.t 8 3 F 1 z O   # # # # # # # # # ",
"  #   #     # # y ).t v S 1 :.>XN l., K : j ; i.O   #   #     #   #   ",
"# # # # # # # X A i 1 > : 7 cX6  .b , , , > ; s.w # # # # # # # # # # ",
"# # # # # # #  .~ o 3 S : ; |.. O c >.i 3 ; 1 q.)  .# # # # # # # # # ",
"# # # # # #  .` $.o 8 : e / `.+ @ P e.k h : e 7 } @ # # # # # # # # # ",
"# # # #      .X.< L o < 1 ].f $ # w _ - k t : F | @ # # #     # # #   ",
"  # # #     V ~ h K < 3 7 D @   # X X.o k Z F ; +XV # # #     # # # # ",
"# # # # # # V _ L > : j / x O # # @ P e., e 7 a.@X* # # # # # # # # # ",
"# # # # # #  .D.i 3 1 / #.2 $ # # # N _ E.j > 7 n.  # # # # # # # # # ",
"# # # # # # $ 9Xz.2.v.-X6 + # # # # # N r.I.7.j.*X2 # # # # # # # # # ",
"  #   #   # 2 ..l 8XQ.m   #     #   # + O.%X' b.u.s  .  #     #   #   ",
"# # # # # + B.0X+.1.c.y.% # # # # # # # . ..T ( u.Y.% # # # # # # # # ",
"# # # # # % J.l [ I 7X6  .# # # # # # # + #X' Y g.8.% # # # # # # # # ",
"# # # # # V 2Xz.m.c.N.# # # # # # # # # $ n +.;X<.&X. # # # # # # # # ",
"# # # # + O.5X3XM.t.6  .# # # # # # # # # # @.H.[ { @.$ # # # # # # # ",
"  #   # . d.l ,.;.^ + #   #     #   #     $ f =X' ( ( 6 $     # # # # ",
"# # # + s l { I r.* # # # # # # # # # # # # $ w.$X[ 7.p % # # # # # # ",
"# # # @ r }.F.^ w # # # # # # # # # # # # # # $ w.y.h.] @ # # # # # # ",
"  # # # N  Xy % # # # # # # # # # # # # # # # #  .+ p.  # # # # # # # "
};
