/* XPM */
static char *_779064bc0ea414f895eafb16ddec24d[] = {
/* columns rows colors chars-per-pixel */
"49 50 250 2 ",
"   c #DF0714",
".  c #ED0001",
"X  c #EC000B",
"o  c #E80807",
"O  c #F50308",
"+  c #E91507",
"@  c #F81708",
"#  c #E80713",
"$  c #F60518",
"%  c #EB1A19",
"&  c #F41715",
"*  c #ED220C",
"=  c #F72708",
"-  c #F83809",
";  c #ED281B",
":  c #F32612",
">  c #F92A18",
",  c #ED3114",
"<  c #EB321B",
"1  c #F43313",
"2  c #FD341C",
"3  c #F93917",
"4  c #EC3A08",
"5  c #FA0C25",
"6  c #EF1628",
"7  c #F51A27",
"8  c #F21C35",
"9  c #E60F21",
"0  c #DF342C",
"q  c #EB2625",
"w  c #F72626",
"e  c #FC3622",
"r  c #E92738",
"t  c #F53535",
"y  c #F02E34",
"u  c #F44B0D",
"i  c #FA4708",
"p  c #FB530C",
"a  c #FC5D0C",
"s  c #F75A07",
"d  c #FD4D13",
"f  c #F84717",
"g  c #FC5314",
"h  c #FC5D13",
"j  c #FE541A",
"k  c #FD5A1A",
"l  c #F55817",
"z  c #EB4A0D",
"x  c #FD6E03",
"c  c #FC620C",
"v  c #F56B0C",
"b  c #FD6B0D",
"n  c #FA6505",
"m  c #FA7404",
"M  c #FF7B04",
"N  c #FC730C",
"B  c #FD7C0C",
"V  c #F57A0C",
"C  c #FD6412",
"Z  c #FD6C14",
"A  c #FF6B1A",
"S  c #F96818",
"D  c #FC7313",
"F  c #FE7B13",
"G  c #FD7618",
"H  c #EA7006",
"J  c #E84A25",
"K  c #FA4824",
"L  c #E85328",
"P  c #FF5326",
"I  c #F94832",
"U  c #FF5539",
"Y  c #EE493B",
"T  c #FF7320",
"R  c #F11F42",
"E  c #EC2841",
"W  c #E93A47",
"Q  c #F43844",
"!  c #FE3A5E",
"~  c #ED4349",
"^  c #F45E48",
"/  c #F34754",
"(  c #EA5658",
")  c #F95856",
"_  c #F64848",
"`  c #FD675B",
"'  c #F85A65",
"]  c #F05169",
"[  c #EB6A69",
"{  c #EE786D",
"}  c #F66C76",
"|  c #E9787B",
" . c #F47272",
".. c #F66666",
"X. c #F78403",
"o. c #FE8404",
"O. c #FC8B04",
"+. c #FC850C",
"@. c #FD8B0B",
"#. c #F68A09",
"$. c #F49504",
"%. c #FE9303",
"&. c #F59A02",
"*. c #FC9B02",
"=. c #FD930A",
"-. c #FD9C0B",
";. c #F29B0D",
":. c #FE8212",
">. c #FF8A1A",
",. c #F79510",
"<. c #FDA301",
"1. c #F6AB00",
"2. c #FDAC02",
"3. c #FDA40A",
"4. c #FEAD0B",
"5. c #F5A307",
"6. c #FDB402",
"7. c #F5B900",
"8. c #FCBC02",
"9. c #FCB50B",
"0. c #FEBA0A",
"q. c #F6B907",
"w. c #FEA712",
"e. c #F4B009",
"r. c #FFB227",
"t. c #FEC302",
"y. c #F7CA00",
"u. c #FDCC02",
"i. c #FEC50B",
"p. c #F8C808",
"a. c #F5D301",
"s. c #FDD302",
"d. c #F6DB02",
"f. c #FDDB02",
"g. c #FED40C",
"h. c #FDDC0A",
"j. c #F6DA0B",
"k. c #FCC614",
"l. c #FCD818",
"z. c #FEE302",
"x. c #FEEB02",
"c. c #FEE20C",
"v. c #FDEB0B",
"b. c #F5E706",
"n. c #FEF302",
"m. c #FCFC01",
"M. c #FEF40A",
"N. c #FFFB09",
"B. c #F5FB05",
"V. c #FFEA16",
"C. c #FDFD13",
"Z. c #FFF616",
"A. c #FAD92A",
"S. c #FCEC26",
"D. c #FBF925",
"F. c #FDFC3C",
"G. c #FDF736",
"H. c #E9F82D",
"J. c #F48747",
"K. c #F78674",
"L. c #FCD247",
"P. c #FDFA49",
"I. c #FFEF53",
"U. c #FCFD5A",
"Y. c #FFDF61",
"T. c #FDFB67",
"R. c #FDFA77",
"E. c #F07D86",
"W. c #EF8989",
"Q. c #EE9289",
"!. c #E98791",
"~. c #F88893",
"^. c #EE9B9E",
"/. c #FA9696",
"(. c #F1928E",
"). c #F0A697",
"_. c #F49CA6",
"`. c #F98BA4",
"'. c #F6A4A5",
"]. c #F5A9B2",
"[. c #EBBABA",
"{. c #F8B7BA",
"}. c #F0B4AB",
"|. c #FDFC8E",
" X c #FCFC83",
".X c #FCFD9B",
"XX c #F9F999",
"oX c #F7C6AD",
"OX c #E8C1BC",
"+X c #F6CCB9",
"@X c #FDDAA4",
"#X c #FEFBA3",
"$X c #FBFBA9",
"%X c #FDFAB9",
"&X c #DEBBC2",
"*X c #E9BBC7",
"=X c #F9BBC5",
"-X c #FAB2CD",
";X c #F6C8C7",
":X c #E9D6CF",
">X c #F4CCD9",
",X c #E9DAD9",
"<X c #F9DADA",
"1X c #F1D0C6",
"2X c #FAE9C7",
"3X c #FEFCC5",
"4X c #FDF9CA",
"5X c #EEE8DC",
"6X c #EAF2DE",
"7X c #FEF9D9",
"8X c #F4E1DB",
"9X c #F2DDE2",
"0X c #F0DDEC",
"qX c #DFF5F2",
"wX c #DBF8E4",
"eX c #EAEDE5",
"rX c #EEEDED",
"tX c #EAE7E4",
"yX c #F5E4E3",
"uX c #F3EDEC",
"iX c #FBEDED",
"pX c #F7E6E8",
"aX c #ECF2EC",
"sX c #E9F6E9",
"dX c #FAF3E4",
"fX c #F2F3ED",
"gX c #FBF3EC",
"hX c #F4FBED",
"jX c #FCFEEE",
"kX c #F6F7E3",
"lX c #ECEEF2",
"zX c #F4EDF2",
"xX c #FBEDF2",
"cX c #FCEEFB",
"vX c #F5ECFB",
"bX c #ECF4F3",
"nX c #E6FCF5",
"mX c #EDFCF5",
"MX c #EDF5FB",
"NX c #EDFDFD",
"BX c #E6F9F9",
"VX c #F4F4F4",
"CX c #FBF4F4",
"ZX c #F3FCF4",
"AX c #FDFDF4",
"SX c #F4F4FB",
"DX c #FBF4FB",
"FX c #F4FDFD",
"GX c #FDFDFE",
"HX c #FCFBFB",
/* pixels */
"GXrXDXVXVXGXrXGXrXHXVXuXGXuXHXbXFXVXuXGXVXFXbXCXAXaXGXpXHXbXVXSXMXFX6XGXMXuXGXsXGXrXGXVXVXGXrXGXVX",
"rXDXVXVXVXVXDXrXDXVXVXFXVXDXCXCXzXVXHXuXgXfXZXVXZXGXGXFXeXVXGXuXAXiXFXaXjXDXeXGXrXDXVXVXVXVXDXrXDX",
"GXVXVXVXVXVXVXGXzXVXVXZXFXrXGXVXkXZXMXFXNXnXrXpX;X-X*XrXGXFXVXCXdXHXcXkXSXVXZXcXDXVXVXVXVXVXVXDXVX",
"VXVXVXVXVXVXVXVXDXCXCXVXVXHXaXZXCXZXyX=X| ` U L i - = 0 /.<XuXNX*X}.ZXBXmXSXxXVXVXVXVXVXVXVXVXVXVX",
"VXVXVXVXVXVXVXVXFXVXCXCXVXAXfXHXMX=X' % & @ = - a N Z f * , J K.+X..| FXxXZXHXfXVXVXVXVXVXVXVXVXVX",
"GXVXVXVXVXVXVXGXbXVXFXmXZXrXCX>X[ y : , > ; t e f C v G b B o.B A K.7 {.FXwXDXVXDXVXVXVXVXVXVXHXVX",
"rXDXVXVXVXVXDXrXFXVXDXbXaXGXpX&X^./. ./ r 8 y q % 2 g v B #.5.2.$.s % Q kXGXzXZXrXDXVXVXVXVXDXrXVX",
"GXrXGXVXVXDXrXGXrXCXCXCXHXeXHXgXFXAX^.W t q 1 3 > , h o.$.-.*.8.<.<.h 7 ].BXGXzXGXrXGXVXVXGXrXGXVX",
"uXAXsXZXCXzXGXkXCXiXFXFXvXDXsXdX'.~ & : f f g k f u v -.<.<.6.y.g.<.+.i ` ZXBXGXaXCX9XFXsXbXGXsXDX",
"mXSXFXmXDXAXhXvXFXNX*X( U J.J.0 : i c T G M x p j C m #.=.<.u.x.u.k.-.n : >XGX6XSXBX].}.GXCXVXCXVX",
"hXaXuXVXvXbXbXFX{.' : i M M s N O.=.*.&.*.*.=.+.N F :.+.=.<.u.C.G.t.9.O., -XhXaXMXGX1X[ zXyXfXSXZX",
"DXCXDXDXmXDXCX[ # o p v p k A B l f p X.6.9.<.&.@.+.#.%.<.2.p.D.GXA.7.@.< 0X*X) GXbXjX'.!.OX'.NXVX",
"NXaXFXDXfXAX .. % e 2 - 1 ; w & & 3 p F 9.a.d.l.r.$.*.<.2.6.8.l.R.A.6.>.= E.HX6 ' [.SXbX~.W.) 8XZX",
"fXHXpXSXNX}.$ X = < 7 5 # ; 3 K a o.%.=.2.u.f.l.k.2.2.2.7.8.8.8.x.y.1.o.4 O ( Y @  .NXFXCXW * (.FX",
"DXzXFXmXtX!   7 K L I & 2 j s N +.#.&.<.2.8.t.8.y.8.4.4.8.8.8.0.0.8.@.X.x e @ % l J pXxXNX} @ ^ lX",
"NXyX{.].;X9X<X).P K 1 2 u s b D +.=.-.*.%.*.6.t.y.i.2.6.0.6.6.7.6.2.+.X.F l d - j - [ FXHX[.+ U _.",
"_.~ # . ] !.SX{ = > 1 i c D +.@.*.<.2.3.<.2.0.u.x.n.j.8.4.6.8.8.2.<.@.V V C u G M d * oXNXZX/ 3 }.",
";X<X`.'.pXiXQ.i 2 e f b F +.%.&.<.6.8.8.t.u.g.z.n.m.Z.l.u.q.0.0.<.-.%.O.F A l g F k = ..GXHXE.& yX",
"FXZXFXNXnX~.u c u g b o.+.=.<.1.1.7.y.s.f.z.v.m.U.|.T.P.V.d.t.4.<.-.<.<.+.F S d A u u I yXDX!./ FX",
"GXrXxXbXgX} = k p C B O.&.6.t.t.8.s.c.x.v.x.m.F.HXAX%X|.U.m.u.<.*.-.2.6.*.#.F a p d a d ;XFX1X;XFX",
"rXZXZXDXNX1X@ 3 g h N O.6.s.f.s.h.n.C.C.D.M.D.3XGXAXHXAX4XF.x.6.@.%.<.8.7.O.B N A C b h { nXNX[.<X",
"GXOX/ ~.zX/ = J u f C =.i.s.a.j.n.F.R.XXXXT..XGXHXAXHXHXHX4XD.u.@.%.<.t.u.*.F B F @.V g ^ gXDX=XtX",
"aXVXq o 6 $ - a 3 , h *.8.s.f.f.n.P. X$X.X.X7XGXHXAXGXGXjXGX.Xx.2.2.u.z.z.0.%.o.@.%.X.d w +X1XnXVX",
"GX>XO $ # % h A h u N <.6.g.h.s.d.M.U.$X$X%XAXGXAXGXHXHXAXHXdXC.s.a.M.m.n.u.1.%.&.2.%.s 5 ).@XFXfX",
"VXuX( w > - C C B +.;.<.<.i.d.u.i.n.R.gX%X#XHXGXHXAXGXGXjXHXGXP.x.x.n.C.n.s.6.3.-.8.%.v $ t oXSXVX",
"DXMXAXr * P l #.+.%.6.6.2.y.p.8.q.n.3XGXHXkXGXHXGXGXGXGXAXGXHXT.n.N.m.m.n.s.8.6.2.8.&.A $ # 2XFXVX",
"FXlXSX] @ z j o.*.5.u.t.t.a.s.0.f.P.GXGXHXHXAXjXGXGXHXGXGXGXAX|.D.F.C.n.x.f.s.u.8.8.-.l O Q aXZXVX",
"uXAXFX=XX = P X.2.q.f.s.u.h.f.t.v. XGXHXGXGXHXGXAXGXHXGXGXHXAX3X$XR.N.x.z.z.f.f.t.6.V g X ).GXeXVX",
"AXrXmXFX[ > v +.6.s.c.g.f.n.c.s.x.C.7XjXGX7X#X%X7XHXHXGXGXAXAXAXGX$Xm.x.z.x.z.f.8.<.A = w hXvXAXVX",
"xXVXVXGX[.2 M o.2.s.f.s.g.n.B.z.z.x.S.I.I.M.m.B.7XAXHXGXAXjXAXGXHX#Xm.v.x.n.z.s.6.$.j @ [ mXGXVXVX",
"mXMXDXVXyXI x $.<.0.t.s.s.S.XXN.d.g.u.u.u.s.n.G.kXHXHXGXHXHXjXGXAXU.m.Z.M.n.z.i.1.N 3 # {.GXSXVXVX",
"aXDXxXmXfXw c =.<.4.t.u.u.x.AX2Xy.u.t.p.p.s.n.U.AXGXHXGXHXGXjXAX3XU.G.C.m.x.s.8.&.d : y rXmXSXCXVX",
"aXCXSXDXuX7 4 :.$.6.t.u.t.s.S.4XL.<.8.a.8.g.m.$XjXGXAXjXGXGXjXAX3X.XT.Z.x.h.6.e.D 1 . /.FXuXMXVXVX",
"FXzXDXFX,XE = F +.&.6.t.s.y.k.h.H.L.6.i.f.s.n.#XGXAXGXDX.XU. X3X|.T.Z.z.f.8.3.<.d O r yXqXGXlXAXVX",
"aXGXbXCXZX_.O h M >.*.5.t.i.t.y.l.7XY.u.f.b.n.P.7XCX7XT.N.n.N.C.n.f.u.p.4.-.w.*.> X ].FXZXuXDXVXVX",
"HXbXbXgXmXVXW 3 D m o.=.*.<.9.9.6.A.j.a.z.m.m.M.D.D.N.n.v.V.x.f.u.0.6.2.%.1.8.h # } mXDXiXAXpXFXVX",
"rXFXDXgXVXNX;Xq f v B :.X.V :.2.9.2.k.g.d.c.v.n.m.n.x.z.d.j.s.u.0.6.t.$.5.4.u 9 8 ,XmXSXDX6XGXbXDX",
"FXbXVXfXDXDXZX/.O 2 s m B F Z o.<.4.8.t.y.h.z.f.h.f.h.h.s.8.5.&.<.6.+.=.6.s $ X /.FXkXVXMXgXbXZXVX",
"DXVXbXGXCXVXHX:X$ # 1 h C b N l M 3.t.g.s.u.i.s.f.s.u.t.8.6.<.*.=.,.w.s.O.O E {.mXDXhXDXbXCXDXVXVX",
"zXHXVXbXSXaXDXDX~ Q R + - j n Z l B *.8.s.f.k.t.a.u.t.p.f.z.u.3.w.s.m.%.q ].mXmXSXCXVXBXHXmXSXgXVX",
"DXVXDXVXVXDXVXDXeX/ '.W.w * - h b p A @.2.y.y.i.g.t.y.c.S.G.V.d.h.s.o.Y 8XnXgXzXVXVXVXVXVXVXVXVXVX",
"VXGXrXVXDXrXGXVXDX9X'.GX;XJ 1 % , K z Z +.$.&.6.3.2.q.8.0.w.*.#.x 3 $ [ ' } ,XGXVXGXrXDXDXrXGXVXVX",
"VXVXDXVXVXDXVXVXVXDXBXtXGX+X- P w & & > C B B v F M B m m v C d f w $ . 5 [.HXsXDXrXGXVXVXGXrXDXVX",
"VXDXVXVXVXVXFXVXmXcXZXhXuXFX..i @.Z 1 5 ; f c G S C Z c h k f 2 @ . 7 Q.hXGXvXCXVXDXVXVXVXVXHXVXDX",
"VXVXDXVXVXDXVXVXrXVXZXcXAXVXSX .H @.O.C 2 > P z h C C h 4 + o o W '.eXFXNXVXZXSXVXVXVXVXVXVXVXVXVX",
"VXVXVXVXVXVXVXVXHXiXSXSXVXSXZXNX-X{ L - @ # Q _ & @ @ e _  ._.>XFXSXFXaXeXAXVXVXVXVXVXVXVXVXVXVXVX",
"VXDXVXVXVXVXDXVXgXFXaXDXqXDXVXdXZXGXpX[.| ' y 7 7 W E.>XSXFXFXZXbXcXcXSXDXaXCXFXVXVXVXVXVXVXVXVXVX",
"DXVXDXVXVXDXVXDXMXDXCXeXGXlXDXVXVXMXSXGXNXFXzX:XyXMXFXFXVXkXSXCXVXZXsXCXVXZXCXBXVXVXVXVXVXVXVXVXVX",
"VXHXaXVXVXVXDXVXVXVXDXVXVXDXVXDXVXVXDXVXVXVXDXDXDXVXVXVXVXHXVXVXDXrXGXVXVXVXVXDXVXDXVXVXVXVXDXaXVX",
"DXVXDXVXVXGXaXDXVXVXVXVXFXVXVXVXVXVXVXHXrXDXVXDXDXVXDXrXDXVXVXVXVXDXVXDXDXrXGXVXDXVXDXVXVXDXaXDXVX"
};
